<?xml version="1.0" encoding="UTF-8"?>
<svg width="972px" height="89px" viewBox="0 0 972 89" version="1.1" xmlns="http://www.w3.org/2000/svg" xmlns:xlink="http://www.w3.org/1999/xlink">
    <title>CHASE CREATIVE</title>
    <g id="Page-1" stroke="none" stroke-width="1" fill="none" fill-rule="evenodd">
        <g id="CHASE-CREATIVE" transform="translate(-5, 0.8517)" fill="#000000" fill-rule="nonzero">
            <path d="M76.7,8.64829868 C67.6,2.44829868 57.4,-0.651701323 46.2,1.14829868 C23.4,4.74829868 1.5,30.8482987 6.2,54.0482987 C9.4,74.2482987 28.5,89.2482987 48.9,87.5482987 C58.6,86.7482987 67,82.4482987 74.3,76.2482987 C75,75.5482987 83.3,66.9482987 78,71.3482987 C57,89.4482987 23.6,79.6482987 14.7,53.2482987 C9.6,35.3482987 14.2,16.0482987 33.2,9.64829868 C46.2,5.34829868 59,8.64829868 69.8,15.6482987 C71.6,14.6482987 76.2,10.6482987 76.7,8.64829868 Z" id="Path"></path>
            <path d="M100.2,80.6482987 L100.2,47.6482987 L154,47.6482987 L154,87.5482987 C155.1,87.8482987 160.7,81.8482987 161,80.6482987 L161,0.648298677 C159,1.14829868 155,5.74829868 154,7.54829868 L154,40.6482987 L100.2,40.6482987 L100.2,0.648298677 C98.2,1.14829868 94.2,5.74829868 93.2,7.54829868 L93.2,87.5482987 C94.3,87.8482987 99.9,81.8482987 100.2,80.6482987 Z" id="Path"></path>
            <path d="M179.2,80.9482987 C181.6,75.2482987 184,69.4482987 186.4,63.6482987 L229.3,63.6482987 L239.4,87.5482987 C240.5,87.8482987 246.1,81.8482987 246.4,80.6482987 C235.2,53.9482987 224,27.2482987 212.8,0.648298677 C210.8,1.14829868 206.8,5.74829868 205.8,7.54829868 C205.1,9.34829868 176.6,77.3482987 172.2,87.5482987 C173.3,87.8482987 178.6,81.7482987 179.2,80.9482987 Z M207.9,12.5482987 L226.4,56.6482987 L189.3,56.6482987 L207.9,12.5482987 Z" id="Shape"></path>
            <path d="M254.6,70.7482987 C257.8,83.7482987 270.5,90.4482987 283.4,86.8482987 C293.3,84.1482987 305.4,72.1482987 305.4,61.7482987 C305.4,45.1482987 281.6,41.6482987 270.9,34.3482987 C264.8,30.1482987 260.7,24.0482987 262,16.4482987 C262.5,13.9482987 262.9,13.3482987 264,11.1482987 C266.5,9.24829868 270.1,8.24829868 273.2,7.84829868 C285.2,6.34829868 295.4,12.7482987 298.4,24.4482987 C299.5,24.7482987 305.1,18.7482987 305.4,17.5482987 C302.3,4.94829868 289.1,-2.75170132 276.4,1.54829868 C267.4,4.74829868 256.6,14.0482987 255,23.3482987 C251.6,42.2482987 277.6,46.2482987 289,53.8482987 C297.1,59.3482987 301,69.0482987 296,77.3482987 C292,79.5482987 287.9,80.7482987 283.4,80.7482987 C272.9,80.7482987 264.2,74.0482987 261.6,63.8482987 C259.6,64.3482987 255.6,68.9482987 254.6,70.7482987 Z" id="Path"></path>
            <path d="M370.4,40.6482987 L335.8,40.6482987 L375.4,5.84829868 C376.8,4.54829868 379.5,2.64829868 380,0.648298677 L326.6,0.648298677 C324.6,1.14829868 320.6,5.74829868 319.6,7.54829868 L319.6,87.5482987 C319.6,87.6482987 319.6,87.6482987 319.7,87.6482987 L371.1,87.6482987 C372.9,86.6482987 377.5,82.6482987 378,80.6482987 L326.6,80.6482987 L326.6,7.64829868 L371.6,7.64829868 C358.5,19.1482987 345.5,30.5482987 332.5,41.9482987 C330.9,43.4482987 327,47.2482987 327.5,47.6482987 L363.5,47.6482987 C365.3,46.6482987 369.9,42.6482987 370.4,40.6482987 Z" id="Path"></path>
            <path d="M497.3,8.64829868 C488.2,2.44829868 478,-0.651701323 466.8,1.14829868 C444,4.74829868 422.1,30.8482987 426.8,54.0482987 C430,74.2482987 449.1,89.2482987 469.5,87.5482987 C479.2,86.7482987 487.6,82.4482987 494.9,76.2482987 C495.6,75.5482987 503.9,66.9482987 498.6,71.3482987 C477.6,89.4482987 444.2,79.6482987 435.3,53.2482987 C430.2,35.3482987 434.8,16.0482987 453.8,9.64829868 C466.8,5.34829868 479.6,8.64829868 490.4,15.6482987 C492.2,14.6482987 496.8,10.6482987 497.3,8.64829868 Z" id="Path"></path>
            <path d="M520.7,80.6482987 L520.7,55.6482987 C527.9,55.7482987 533.8,56.3482987 539.6,55.5482987 C549,66.2482987 558.5,76.9482987 568,87.5482987 C568.5,88.0482987 575.3,81.8482987 575,80.6482987 C566.6,71.2482987 558.3,61.7482987 549.9,52.3482987 C550.8,51.9482987 551.7,51.4482987 552.6,50.8482987 C567.2,41.7482987 575.6,21.3482987 561.8,7.64829868 C551,-3.15170132 533.8,0.648298677 520.7,0.648298677 C518.7,1.14829868 514.7,5.74829868 513.7,7.54829868 L513.7,87.5482987 C514.8,87.8482987 520.4,81.8482987 520.7,80.6482987 Z M520.7,7.64829868 C535.6,7.64829868 551.1,5.14829868 559.1,20.5482987 C563.2,28.7482987 562.3,38.0482987 557.8,44.7482987 C555.1,46.5482987 551.9,47.8482987 546.7,48.6482987 C543.1,44.6482987 539.5,40.6482987 536,36.6482987 C533.7,37.2482987 531.4,40.5482987 529.8,42.2482987 C526.8,45.9482987 523.8,49.5482987 520.7,53.2482987 L520.7,7.64829868 Z M526.3,48.6482987 C527.4,47.2482987 528.6,45.8482987 529.8,44.4482987 C531.1,45.9482987 532.3,47.4482987 533.6,48.8482987 C531.2,48.8482987 528.7,48.6482987 526.3,48.6482987 Z" id="Shape"></path>
            <path d="M638,40.6482987 L603.4,40.6482987 L643,5.84829868 C644.4,4.54829868 647.1,2.64829868 647.6,0.648298677 L594.2,0.648298677 C592.2,1.14829868 588.2,5.74829868 587.2,7.54829868 L587.2,87.5482987 C587.2,87.6482987 587.2,87.6482987 587.3,87.6482987 L638.7,87.6482987 C640.5,86.6482987 645.1,82.6482987 645.6,80.6482987 L594.2,80.6482987 L594.2,7.64829868 L639.2,7.64829868 C626.1,19.1482987 613.1,30.5482987 600.1,41.9482987 C598.5,43.4482987 594.6,47.2482987 595.1,47.6482987 L631.1,47.6482987 C632.9,46.6482987 637.5,42.6482987 638,40.6482987 Z" id="Path"></path>
            <path d="M661.8,80.9482987 C664.2,75.2482987 666.6,69.4482987 669,63.6482987 L711.9,63.6482987 L722,87.5482987 C723.1,87.8482987 728.7,81.8482987 729,80.6482987 C717.8,53.9482987 706.6,27.2482987 695.4,0.648298677 C693.4,1.14829868 689.4,5.74829868 688.4,7.54829868 C687.7,9.34829868 659.2,77.3482987 654.8,87.5482987 C655.9,87.8482987 661.2,81.7482987 661.8,80.9482987 Z M690.5,12.5482987 L709,56.6482987 L671.9,56.6482987 L690.5,12.5482987 Z" id="Shape"></path>
            <path d="M798.6,0.648298677 L730.3,0.648298677 C727.5,2.04829868 724.9,5.14829868 723.4,7.64829868 L757.3,7.64829868 L757.3,87.5482987 C758.4,87.8482987 764,81.8482987 764.3,80.6482987 L764.3,7.64829868 L791.7,7.64829868 C793.5,6.64829868 798.1,2.64829868 798.6,0.648298677 Z" id="Path"></path>
            <path d="M815.8,80.6482987 L815.8,0.648298677 C813.8,1.14829868 809.8,5.74829868 808.8,7.54829868 L808.8,87.5482987 C809.9,87.8482987 815.5,81.8482987 815.8,80.6482987 Z" id="Path"></path>
            <path d="M828,7.54829868 C839.5,34.2482987 851,60.9482987 862.6,87.5482987 C863.7,87.8482987 869,81.7482987 869.6,80.9482987 C881.1,54.2482987 892.6,27.5482987 904.2,0.948298677 C901.7,1.94829868 898.8,5.04829868 897.2,7.54829868 C887.3,30.3482987 877.5,53.1482987 867.6,75.9482987 C856.7,50.8482987 845.9,25.7482987 835,0.648298677 C833,1.14829868 829,5.74829868 828,7.54829868 Z" id="Path"></path>
            <path d="M967.3,40.6482987 L932.7,40.6482987 L972.3,5.84829868 C973.7,4.54829868 976.4,2.64829868 976.9,0.648298677 L923.5,0.648298677 C921.5,1.14829868 917.5,5.74829868 916.5,7.54829868 L916.5,87.5482987 C916.5,87.6482987 916.5,87.6482987 916.6,87.6482987 L968,87.6482987 C969.8,86.6482987 974.4,82.6482987 974.9,80.6482987 L923.5,80.6482987 L923.5,7.64829868 L968.5,7.64829868 C955.4,19.1482987 942.4,30.5482987 929.4,41.9482987 C927.8,43.4482987 923.9,47.2482987 924.4,47.6482987 L960.4,47.6482987 C962.2,46.6482987 966.8,42.6482987 967.3,40.6482987 Z" id="Path"></path>
        </g>
    </g>
</svg>